<svg width="383" height="187" viewBox="0 0 383 187" fill="none" xmlns="http://www.w3.org/2000/svg">
<path fill-rule="evenodd" clip-rule="evenodd" d="M176.005 181.569C191.311 172.733 196.555 153.162 187.718 137.857L123.718 27.0053C114.882 11.7 95.3107 6.45597 80.0053 15.2925C64.7 24.1291 59.456 43.7 68.2925 59.0053L132.293 169.857C141.129 185.162 160.7 190.406 176.005 181.569Z" fill="#898787"/>
<path fill-rule="evenodd" clip-rule="evenodd" d="M16.0053 181.569C0.699978 172.733 -4.54403 153.162 4.29253 137.857L68.2925 27.0053C77.1291 11.7 96.7 6.45597 112.005 15.2925C127.311 24.1291 132.555 43.7 123.718 59.0053L59.7182 169.857C50.8816 185.162 31.3107 190.406 16.0053 181.569Z" fill="#898787"/>
<path d="M72.2377 22.0711C63.33 32.0564 61.3458 46.9888 68.3315 59.2314L18.1489 146.15C13.7307 153.803 16.3527 163.588 24.0053 168.007C31.658 172.425 41.4435 169.803 45.8617 162.15L86.8065 91.2318L96.0441 107.232L59.7182 170.15C50.8816 185.455 31.3107 190.699 16.0053 181.863C0.699978 173.026 -4.54403 153.455 4.29253 138.15L68.2925 27.2989C69.4061 25.3701 70.6901 23.6011 72.1146 22L72.2377 22.0711Z" fill="url(#paint0_linear_8_27)"/>
<path d="M38.9335 158.15L82.1877 83.2318L72.9501 67.2318L25.0771 150.15C22.868 153.976 24.179 158.869 28.0053 161.078C31.8317 163.287 36.7244 161.976 38.9335 158.15Z" fill="url(#paint1_linear_8_27)"/>
<path fill-rule="evenodd" clip-rule="evenodd" d="M340 185.58H240V98H340C363.472 98 382.5 117.605 382.5 141.79C382.5 165.975 363.472 185.58 340 185.58Z" fill="#898787"/>
<path fill-rule="evenodd" clip-rule="evenodd" d="M334.877 98.58H224V11H334.877C360.902 11 382 30.6055 382 54.79C382 78.9745 360.902 98.58 334.877 98.58Z" fill="#BAAEAE"/>
<path fill-rule="evenodd" clip-rule="evenodd" d="M128 154C128 136.327 142.327 122 160 122H288C305.673 122 320 136.327 320 154C320 171.673 305.673 186 288 186H160C142.327 186 128 171.673 128 154Z" fill="#898787"/>
<path fill-rule="evenodd" clip-rule="evenodd" d="M144.005 181.57C128.7 172.733 123.456 153.162 132.293 137.857L196.293 27.0055C205.129 11.7002 224.7 6.45616 240.005 15.2927C255.311 24.1293 260.555 43.7002 251.718 59.0055L187.718 169.857C178.882 185.162 159.311 190.406 144.005 181.57Z" fill="#898787"/>
<path fill-rule="evenodd" clip-rule="evenodd" d="M304.006 181.57C319.311 172.733 324.555 153.162 315.718 137.857L251.718 27.0055C242.882 11.7002 223.311 6.45616 208.006 15.2927C192.7 24.1293 187.456 43.7002 196.293 59.0055L260.293 169.857C269.129 185.162 288.7 190.406 304.006 181.57Z" fill="#898787"/>
<path d="M245.806 22.0711C254.714 32.0564 256.698 46.9888 249.713 59.2314L299.895 146.15C304.313 153.803 301.691 163.588 294.039 168.007C286.386 172.425 276.601 169.803 272.182 162.15L231.238 91.2318L222 107.232L258.326 170.15C267.162 185.455 286.733 190.699 302.039 181.863C317.344 173.026 322.588 153.455 313.752 138.15L249.752 27.2989C248.638 25.3701 247.354 23.6011 245.929 22L245.806 22.0711Z" fill="url(#paint2_linear_8_27)"/>
<path d="M279.111 158.15L235.856 83.2318L245.094 67.2318L292.967 150.15C295.176 153.976 293.865 158.869 290.039 161.078C286.212 163.287 281.32 161.976 279.111 158.15Z" fill="url(#paint3_linear_8_27)"/>
<path d="M129.18 144.602C133.374 131.895 145.314 122.71 159.409 122.639L209.592 35.7201C214.01 28.0674 223.795 25.4454 231.448 29.8637C239.101 34.282 241.723 44.0674 237.304 51.7201L196.36 122.638L214.835 122.638L251.161 59.7201C259.997 44.4147 254.753 24.8439 239.448 16.0073C224.143 7.17074 204.572 12.4147 195.735 27.7201L131.735 138.571C130.622 140.5 129.732 142.497 129.057 144.531L129.18 144.602Z" fill="url(#paint4_linear_8_27)"/>
<path d="M230.376 47.7201L187.122 122.638L168.647 122.638L216.52 39.7201C218.729 35.8938 223.622 34.5828 227.448 36.7919C231.274 39.001 232.585 43.8938 230.376 47.7201Z" fill="url(#paint5_linear_8_27)"/>
<defs>
<linearGradient id="paint0_linear_8_27" x1="22.5053" y1="170.605" x2="94.2553" y2="46.33" gradientUnits="userSpaceOnUse">
<stop stop-color="#55D2AD"/>
<stop offset="0.984375" stop-color="#8B9596"/>
</linearGradient>
<linearGradient id="paint1_linear_8_27" x1="22.5053" y1="170.605" x2="94.2553" y2="46.33" gradientUnits="userSpaceOnUse">
<stop stop-color="#55D2AD"/>
<stop offset="0.984375" stop-color="#8B9596"/>
</linearGradient>
<linearGradient id="paint2_linear_8_27" x1="295.539" y1="170.605" x2="223.789" y2="46.33" gradientUnits="userSpaceOnUse">
<stop stop-color="#50E2AE"/>
<stop offset="0.984375" stop-color="#6A988D"/>
</linearGradient>
<linearGradient id="paint3_linear_8_27" x1="295.539" y1="170.605" x2="223.789" y2="46.33" gradientUnits="userSpaceOnUse">
<stop stop-color="#50E2AE"/>
<stop offset="0.984375" stop-color="#6A988D"/>
</linearGradient>
<linearGradient id="paint4_linear_8_27" x1="232.948" y1="27.2656" x2="161.198" y2="151.54" gradientUnits="userSpaceOnUse">
<stop stop-color="#48DBB8"/>
<stop offset="0.984375" stop-color="#819A97"/>
</linearGradient>
<linearGradient id="paint5_linear_8_27" x1="232.948" y1="27.2656" x2="161.198" y2="151.54" gradientUnits="userSpaceOnUse">
<stop stop-color="#48DBB8"/>
<stop offset="0.984375" stop-color="#819A97"/>
</linearGradient>
</defs>
</svg>
